# xmcd
#
# Track frame offsets: 
#        150
#        16929
#        31547
#        46556
#        68763
#        82462
#        96223
#        115904
#        136381
#        152772
#        173505
#        203208
#        219281
#        237659
#        251894
#        274098
#        290609
#        309488
#
# Disc length: 4618 seconds
#
# Revision: 0
# Processed by: cddbd v1.5.2PL0 Copyright (c) Steve Scherf et al.
# Submitted via: ExactAudioCopyFreeDBPlugin 1.0
#
DISCID=fa120812
DTITLE=Various Artist - Unexploited and Underrated
DYEAR=2013
DGENRE=R&B 80's
TTITLE0=The Elgins - Don't Wait Around
TTITLE1=Billy Preston - You Are The Rhythm In My Life
TTITLE2=Noel McKoy - Just A Lucky Fella
TTITLE3=J.J. Barnes - I've Seen The Light
TTITLE4=David Ruffin - Hurt The One You Love
TTITLE5=The Contours - Got To Win You Back
TTITLE6=Vermettya Royster - If I Were Your Woman
TTITLE7=G.C. Cameron - No Need To Explain
TTITLE8=Ebony Alleyne - All The Love In The World
TTITLE9=Peter Hoorelbeke - Talk To The World
TTITLE10=James "Sweet" Epps - Back In Circulation (Metropolitan Soul M
TTITLE10=ix)
TTITLE11=Lynda Laurence - Crying Shame
TTITLE12=The Originals - Love Still Lives In My Heart
TTITLE13=Gina Foster - My World Will Never Be The Same
TTITLE14=Linda Griner - Prime Time Lover
TTITLE15=Angie Moonstone - Gold - You Take My Breath Away
TTITLE16=Bettye Lavette - Too Great A Price To Pay
TTITLE17=Barbara Randolph - Soul Searching
EXTD=
EXTT0=
EXTT1=
EXTT2=
EXTT3=
EXTT4=
EXTT5=
EXTT6=
EXTT7=
EXTT8=
EXTT9=
EXTT10=
EXTT11=
EXTT12=
EXTT13=
EXTT14=
EXTT15=
EXTT16=
EXTT17=
PLAYORDER=
